<svg width="18" height="18" viewBox="0 0 18 18" fill="none" xmlns="http://www.w3.org/2000/svg">
<rect width="18" height="18" rx="2" fill="#F9A51B"/>
<path d="M8.58892 13.7982C5.56188 9.6842 5 9.26197 5 7.75C5 5.67893 6.79085 4 9 4C11.2091 4 13 5.67893 13 7.75C13 9.26197 12.4381 9.6842 9.41108 13.7982C9.21244 14.0673 8.78754 14.0672 8.58892 13.7982ZM9 9.3125C9.92048 9.3125 10.6667 8.61295 10.6667 7.75C10.6667 6.88705 9.92048 6.1875 9 6.1875C8.07952 6.1875 7.33333 6.88705 7.33333 7.75C7.33333 8.61295 8.07952 9.3125 9 9.3125Z" fill="black"/>
</svg>
