<svg width="49" height="59" viewBox="0 0 49 59" fill="none" xmlns="http://www.w3.org/2000/svg">
<path d="M43.8349 38.9842C43.8233 38.9959 43.8115 39.007 43.7999 39.0187L41.8027 37.0087C45.7165 33.0831 48.1422 27.6556 48.1422 21.6683C48.1422 9.72028 38.4838 0 26.6119 0C20.6818 0 15.3042 2.42533 11.4066 6.34211L9.39166 4.31421C9.82907 3.87082 9.82828 3.15449 9.38884 2.71234C8.9485 2.26917 8.23436 2.26917 7.79413 2.71234C3.35043 7.18453 0.615221 13.1133 0.0925587 19.4067C-0.424014 25.6258 1.23385 31.8547 4.76077 36.9461C4.97999 37.2625 5.33046 37.432 5.68679 37.432C5.90939 37.432 6.13424 37.3658 6.33068 37.228C6.8415 36.8695 6.967 36.1621 6.61078 35.648C0.294858 26.5307 0.913596 14.4057 7.87002 5.9928L9.89448 8.03023C6.88694 11.757 5.08159 16.5041 5.08159 21.6682C5.08159 33.6161 14.74 43.3365 26.6119 43.3365C31.7239 43.3365 36.4246 41.533 40.1214 38.5266L42.1279 40.546C33.8718 47.4183 21.9587 48.1002 12.9599 41.9573C12.4444 41.6053 11.7432 41.7408 11.3937 42.2595C11.0441 42.7782 11.1785 43.4839 11.694 43.8357C15.8962 46.7044 20.6795 48.2103 25.4842 48.4096V51.2962H21.4247C18.3158 51.2962 15.7865 53.8417 15.7865 56.9705C15.7865 57.5973 16.2914 58.1054 16.9142 58.1054H36.3096C36.9324 58.1054 37.4373 57.5973 37.4373 56.9705C37.4373 53.8417 34.908 51.2962 31.799 51.2962H27.7395V48.4069C34.2174 48.1251 40.5743 45.4756 45.4296 40.5892C45.87 40.1461 45.87 39.4275 45.4296 38.9842C44.9893 38.5411 44.2753 38.5411 43.8349 38.9842ZM26.2899 5.25161L28.5729 2.36961C36.5115 3.18036 43.0414 8.85994 45.1604 16.3859L44.8914 16.6273C44.6387 16.8542 44.4369 17.1289 44.2947 17.432L44.0686 16.8062C43.9711 16.5365 43.8277 16.2891 43.6424 16.0708L42.6246 14.8716C42.1727 14.3391 41.5145 14.0337 40.8187 14.0337H39.5728C39.0192 14.0337 38.513 14.3389 38.2519 14.8302C37.9976 15.3085 38.0179 15.8834 38.3027 16.3412C37.6418 16.8792 36.9013 17.3224 36.117 17.6481L34.5689 14.6637V14.0036C34.5689 13.6936 34.4428 13.3969 34.2199 13.1828L32.6819 11.7051C32.5661 11.5938 32.4282 11.5087 32.277 11.4553L27.8118 9.8761C27.6917 9.83366 27.5652 9.81198 27.438 9.81198H23.5535C22.2837 9.81198 21.1093 10.4123 20.3527 11.385L19.465 10.1336L20.5623 7.45655L25.7813 5.61511C25.9814 5.54441 26.1577 5.41844 26.2899 5.25161ZM31.9123 29.1847C32.1633 30 32.1633 30 31.8229 30.3727C31.7631 30.4381 31.7074 30.4979 31.6552 30.5538C31.264 30.9729 30.9261 31.3348 30.6562 32.1906C30.6032 32.3586 30.543 32.427 30.3817 32.6096C30.2366 32.774 30.056 32.9787 29.8846 33.2741C29.6719 33.6406 29.6015 33.9934 29.5502 34.251C29.5039 34.4827 29.4861 34.5489 29.4394 34.6065C29.0406 35.0995 28.399 35.5692 28.07 35.6772C27.941 35.4794 27.6847 35.0036 27.3334 33.9537C27.2094 33.5837 27.0413 33.2107 26.8786 32.8501C26.5657 32.1564 26.211 31.3702 26.3521 30.9307L26.4135 30.7411C26.701 29.8594 26.9982 28.9476 26.4606 27.6511C26.2899 27.2395 26.0203 26.941 25.8037 26.7011C25.7173 26.6055 25.5884 26.4628 25.5551 26.3986C25.5378 26.3156 25.5385 26.2039 25.5394 26.0646C25.5423 25.6069 25.5474 24.8408 24.8025 24.139C23.7686 23.1649 22.5598 23.4658 21.8377 23.6456C21.6305 23.6972 21.4348 23.7459 21.272 23.7652C20.2242 23.889 19.2892 23.4934 18.708 22.6795C18.095 21.8212 18.0075 20.6633 18.4794 19.6578C18.712 19.1625 19.0779 18.7482 19.5015 18.2684C19.5984 18.1587 19.6962 18.048 19.7937 17.9348C19.965 17.7362 20.1464 17.4769 20.3387 17.2023C20.5384 16.9168 20.9074 16.3899 21.0771 16.2552C21.395 16.0899 22.2557 16.0592 22.7733 16.0407C23.0153 16.0321 23.2445 16.0239 23.4546 16.0072C23.4547 16.0645 23.4591 16.1222 23.468 16.1797C23.5224 16.5319 23.7381 16.8379 24.0503 17.006C24.1924 17.0825 24.4024 17.2234 24.6245 17.3725C25.3018 17.8268 26.0695 18.3419 26.8375 18.3911C27.6002 18.4399 28.0317 17.9972 28.1943 17.8304C28.2015 17.8229 28.2086 17.8155 28.2158 17.8083C28.2669 17.7653 28.3165 17.7159 28.3626 17.6607C28.4307 17.6796 28.5 17.6984 28.57 17.7175C28.9789 17.8289 29.827 18.06 30.0368 18.2358C30.3507 18.5761 30.6159 19.267 30.8501 19.8771C30.9707 20.1913 31.0954 20.516 31.2314 20.8085C31.2872 20.9285 31.3421 21.0521 31.3979 21.1773C31.7764 22.027 32.2475 23.0846 33.2383 23.7364C33.5961 23.9718 34.0101 24.0789 34.3887 24.1476C34.1849 24.3671 33.9487 24.5886 33.7042 24.8177C32.677 25.7805 31.2701 27.0992 31.9123 29.1847ZM13.8576 32.5961L13.2745 35.6592C10.3069 32.7928 8.24677 28.9827 7.57514 24.7134L9.30528 24.1478L12.5868 26.6588C12.7242 26.7639 12.8837 26.8359 13.0531 26.8692L15.1067 27.2731C15.3441 27.3199 15.4677 27.4781 15.5203 27.5682C15.5728 27.6583 15.6496 27.8441 15.5743 28.0756C15.3832 28.6621 15.3823 29.2823 15.5718 29.8693L15.8335 30.68C15.9386 31.0055 15.761 31.3561 15.4376 31.4619L14.6166 31.7303C14.2257 31.8581 13.9348 32.1898 13.8576 32.5961ZM26.6118 41.0668C22.3677 41.0668 18.4403 39.678 15.2525 37.3298L15.9469 33.6817L16.1342 33.6204C17.6403 33.1281 18.4675 31.4944 17.9782 29.9786L17.7165 29.168C17.6758 29.0419 17.676 28.9087 17.717 28.7828C17.9736 27.9957 17.8819 27.1344 17.4656 26.4199C17.0493 25.7053 16.3471 25.2043 15.5391 25.0453L13.7429 24.6922L10.2005 21.9814C9.90632 21.7565 9.52134 21.6907 9.16952 21.8055L7.35198 22.3997C7.34296 22.1569 7.33687 21.9132 7.33687 21.6682C7.33687 11.2621 15.521 2.74457 25.7515 2.28994L24.7287 3.58108L19.3395 5.48267C19.0363 5.58969 18.7927 5.82189 18.6701 6.12093L17.1422 9.84875C16.9941 10.2101 17.0411 10.6227 17.2668 10.9409L19.6238 14.264C19.6634 14.3197 19.7088 14.3694 19.7565 14.4163C19.3301 14.7294 18.9561 15.237 18.4951 15.8955C18.3437 16.1118 18.187 16.3354 18.0905 16.4473C17.9987 16.5538 17.9068 16.6579 17.8157 16.761C17.3218 17.3203 16.811 17.8987 16.4401 18.6887C15.6181 20.4398 15.7853 22.4767 16.8765 24.0047C17.9346 25.4864 19.6758 26.2393 21.5351 26.0199C21.8386 25.984 22.1258 25.9125 22.3792 25.8494C23.0288 25.6877 23.1509 25.6928 23.261 25.7965C23.2689 25.8039 23.2749 25.8101 23.2794 25.8149C23.2851 25.8662 23.2844 25.9709 23.284 26.0502C23.2824 26.279 23.2804 26.5922 23.3662 26.9477C23.5076 27.534 23.8699 27.9352 24.1345 28.2281C24.2212 28.3241 24.3522 28.4693 24.3789 28.5257C24.5843 29.0208 24.5211 29.2647 24.2703 30.034L24.2056 30.2334C23.7963 31.509 24.3665 32.773 24.8248 33.7888C24.9707 34.1123 25.1085 34.4178 25.1959 34.6788C25.9754 37.0075 26.5977 37.558 27.1035 37.7894C27.3891 37.92 27.6776 37.976 27.9626 37.9758C29.5998 37.9757 31.1138 36.1319 31.1881 36.0401C31.5937 35.5388 31.6945 35.0326 31.7613 34.6975C31.7836 34.5856 31.8088 34.4588 31.8319 34.4192C31.8906 34.3178 31.965 34.2336 32.068 34.1168C32.2958 33.8588 32.6077 33.5051 32.8057 32.8775C32.9206 32.5133 32.9783 32.4514 33.2989 32.108C33.3563 32.0465 33.4177 31.9808 33.4835 31.9087C34.7015 30.575 34.3786 29.5267 34.0665 28.5129C33.8728 27.884 34.1584 27.4939 35.2414 26.4789C35.7162 26.0339 36.2072 25.5737 36.5959 25.0074C36.7813 24.7373 37.3455 23.9152 36.9745 23.0493C36.6094 22.1974 35.7223 22.0605 35.0745 21.9605C34.8842 21.9312 34.5671 21.8822 34.4656 21.8322C34.032 21.5421 33.7393 20.8848 33.4561 20.249C33.3952 20.1124 33.3351 19.9776 33.2742 19.8467C33.1713 19.6252 33.0657 19.3503 32.9541 19.0595C32.6435 18.2504 32.2916 17.3334 31.6711 16.6716C31.0914 16.0533 30.0652 15.7737 29.1597 15.527C28.8747 15.4493 28.6057 15.3759 28.4367 15.3133C28.2293 15.2362 28.004 15.2222 27.7886 15.273C27.32 15.3836 27.0209 15.5107 26.7885 15.6983C26.7102 15.7615 26.6348 15.8386 26.568 15.9279C26.3878 15.8227 26.1898 15.6938 26.0256 15.5846C26.0605 15.2511 25.9767 14.9778 25.8912 14.7959C25.3446 13.6323 23.6351 13.715 23.2976 13.7434C23.1332 13.7572 22.9196 13.7648 22.6937 13.7729C22.3695 13.7845 22.0156 13.7972 21.6589 13.8314L21.8536 13.2856C22.1103 12.5656 22.7936 12.0818 23.5536 12.0818H27.2458L31.3005 13.5157L32.3138 14.4893V14.9423C32.3138 15.1252 32.3578 15.3053 32.4418 15.4675L34.5799 19.5893C34.8424 20.0954 35.4374 20.3264 35.9697 20.1289L36.5923 19.8978C38.0792 19.346 39.4575 18.4581 40.5783 17.3303C40.8458 17.061 40.9543 16.6844 40.891 16.3278C40.8979 16.3331 40.9042 16.3391 40.9098 16.3458L41.9276 17.545C41.937 17.5561 41.9443 17.5686 41.9492 17.5821L43.0724 20.6907C43.2041 21.0553 43.5117 21.3268 43.8879 21.4108C43.9691 21.429 44.0509 21.4377 44.1322 21.4377C44.428 21.4377 44.7157 21.3205 44.9295 21.1053L45.4643 20.567C45.6001 20.4303 45.7206 20.2806 45.8253 20.1204C45.8656 20.6312 45.8868 21.1472 45.8868 21.6682C45.8868 32.3646 37.24 41.0668 26.6118 41.0668ZM31.7992 53.5659C33.2693 53.5659 34.5233 54.5145 34.9888 55.8356H18.2351C18.7005 54.5145 19.9546 53.5659 21.4248 53.5659H31.7992Z" fill="#F9A51B"/>
<path d="M8.59148 38.4708C7.96868 38.4708 7.46384 38.9789 7.46384 39.6057V39.7866C7.46384 40.4134 7.96868 40.9215 8.59148 40.9215C9.21428 40.9215 9.71912 40.4134 9.71912 39.7866V39.6057C9.71912 38.9789 9.21428 38.4708 8.59148 38.4708Z" fill="#F9A51B"/>
</svg>
