<svg width="55" height="55" viewBox="0 0 55 55" fill="none" xmlns="http://www.w3.org/2000/svg">
<path d="M8.16066 36.2696C4.10468 36.2696 0 37.5155 0 39.8966V50.7774C0 53.1585 4.10468 54.4044 8.16066 54.4044C12.2166 54.4044 16.3213 53.1585 16.3213 50.7774V39.8966C16.3213 37.5155 12.2166 36.2696 8.16066 36.2696ZM8.16066 38.0831C12.2835 38.0831 14.5078 39.3706 14.5078 39.8966C14.5078 40.4225 12.2835 41.71 8.16066 41.71C4.03783 41.71 1.81348 40.4225 1.81348 39.8966C1.81348 39.3706 4.03783 38.0831 8.16066 38.0831ZM8.16066 52.5909C4.03783 52.5909 1.81348 51.3034 1.81348 50.7774V49.5081C3.80539 50.4082 5.97616 50.8421 8.16066 50.7774C10.3452 50.8421 12.5159 50.4082 14.5078 49.5081V50.7774C14.5078 51.3034 12.2835 52.5909 8.16066 52.5909ZM8.16066 48.964C4.03783 48.964 1.81348 47.6765 1.81348 47.1505V45.8811C3.80539 46.7812 5.97616 47.2151 8.16066 47.1505C10.3452 47.2151 12.5159 46.7812 14.5078 45.8811V47.1505C14.5078 47.6765 12.2835 48.964 8.16066 48.964ZM8.16066 45.337C4.03783 45.337 1.81348 44.0495 1.81348 43.5235V42.2542C3.80539 43.1543 5.97616 43.5882 8.16066 43.5235C10.3452 43.5882 12.5159 43.1543 14.5078 42.2542V43.5235C14.5078 44.0495 12.2835 45.337 8.16066 45.337Z" fill="#F9A51B"/>
<path d="M27.2022 29.0157C23.1462 29.0157 19.0415 30.2616 19.0415 32.6426V50.7774C19.0415 53.1585 23.1462 54.4044 27.2022 54.4044C31.2581 54.4044 35.3628 53.1585 35.3628 50.7774V32.6426C35.3628 30.2616 31.2581 29.0157 27.2022 29.0157ZM27.2022 30.8292C31.325 30.8292 33.5493 32.1167 33.5493 32.6426C33.5493 33.1686 31.325 34.4561 27.2022 34.4561C23.0793 34.4561 20.855 33.1686 20.855 32.6426C20.855 32.1167 23.0793 30.8292 27.2022 30.8292ZM27.2022 52.5909C23.0793 52.5909 20.855 51.3034 20.855 50.7774V49.5081C22.8469 50.4082 25.0177 50.8421 27.2022 50.7774C29.3867 50.8421 31.5574 50.4082 33.5493 49.5081V50.7774C33.5493 51.3034 31.325 52.5909 27.2022 52.5909ZM27.2022 48.964C23.0793 48.964 20.855 47.6765 20.855 47.1505V45.8811C22.8469 46.7812 25.0177 47.2151 27.2022 47.1505C29.3867 47.2151 31.5574 46.7812 33.5493 45.8811V47.1505C33.5493 47.6765 31.325 48.964 27.2022 48.964ZM27.2022 45.337C23.0793 45.337 20.855 44.0495 20.855 43.5235V42.2542C22.8469 43.1543 25.0177 43.5882 27.2022 43.5235C29.3867 43.5882 31.5574 43.1543 33.5493 42.2542V43.5235C33.5493 44.0495 31.325 45.337 27.2022 45.337ZM27.2022 41.71C23.0793 41.71 20.855 40.4225 20.855 39.8966V38.6272C22.8469 39.5273 25.0177 39.9612 27.2022 39.8966C29.3867 39.9612 31.5574 39.5273 33.5493 38.6272V39.8966C33.5493 40.4225 31.325 41.71 27.2022 41.71ZM27.2022 38.0831C23.0793 38.0831 20.855 36.7956 20.855 36.2696V35.0003C22.8469 35.9004 25.0177 36.3342 27.2022 36.2696C29.3867 36.3342 31.5574 35.9004 33.5493 35.0003V36.2696C33.5493 36.7956 31.325 38.0831 27.2022 38.0831Z" fill="#F9A51B"/>
<path d="M46.2438 18.1348C42.1878 18.1348 38.0831 19.3807 38.0831 21.7618V50.7775C38.0831 53.1585 42.1878 54.4044 46.2438 54.4044C50.2998 54.4044 54.4044 53.1585 54.4044 50.7775V21.7618C54.4044 19.3807 50.2998 18.1348 46.2438 18.1348ZM46.2438 19.9483C50.3666 19.9483 52.591 21.2358 52.591 21.7618C52.591 22.2878 50.3666 23.5753 46.2438 23.5753C42.121 23.5753 39.8966 22.2878 39.8966 21.7618C39.8966 21.2358 42.121 19.9483 46.2438 19.9483ZM46.2438 52.5909C42.121 52.5909 39.8966 51.3034 39.8966 50.7775V49.5081C41.8885 50.4082 44.0593 50.8421 46.2438 50.7775C48.4283 50.8421 50.5991 50.4082 52.591 49.5081V50.7775C52.591 51.3034 50.3666 52.5909 46.2438 52.5909ZM46.2438 48.964C42.121 48.964 39.8966 47.6765 39.8966 47.1505V45.8812C41.8885 46.7813 44.0593 47.2151 46.2438 47.1505C48.4283 47.2151 50.5991 46.7813 52.591 45.8812V47.1505C52.591 47.6765 50.3666 48.964 46.2438 48.964ZM46.2438 45.337C42.121 45.337 39.8966 44.0495 39.8966 43.5235V42.2542C41.8885 43.1543 44.0593 43.5882 46.2438 43.5235C48.4283 43.5882 50.5991 43.1543 52.591 42.2542V43.5235C52.591 44.0495 50.3666 45.337 46.2438 45.337ZM46.2438 41.7101C42.121 41.7101 39.8966 40.4226 39.8966 39.8966V38.6272C41.8885 39.5273 44.0593 39.9612 46.2438 39.8966C48.4283 39.9612 50.5991 39.5273 52.591 38.6272V39.8966C52.591 40.4226 50.3666 41.7101 46.2438 41.7101ZM46.2438 38.0831C42.121 38.0831 39.8966 36.7956 39.8966 36.2696V35.0003C41.8885 35.9004 44.0593 36.3343 46.2438 36.2696C48.4283 36.3343 50.5991 35.9004 52.591 35.0003V36.2696C52.591 36.7956 50.3666 38.0831 46.2438 38.0831ZM46.2438 34.4561C42.121 34.4561 39.8966 33.1686 39.8966 32.6427V31.3733C41.8885 32.2734 44.0593 32.7073 46.2438 32.6427C48.4283 32.7073 50.5991 32.2734 52.591 31.3733V32.6427C52.591 33.1686 50.3666 34.4561 46.2438 34.4561ZM46.2438 30.8292C42.121 30.8292 39.8966 29.5417 39.8966 29.0157V27.7464C41.8885 28.6465 44.0593 29.0803 46.2438 29.0157C48.4283 29.0803 50.5991 28.6465 52.591 27.7464V29.0157C52.591 29.5417 50.3666 30.8292 46.2438 30.8292ZM46.2438 27.2022C42.121 27.2022 39.8966 25.9147 39.8966 25.3887V24.1194C41.8885 25.0195 44.0593 25.4534 46.2438 25.3887C48.4283 25.4534 50.5991 25.0195 52.591 24.1194V25.3887C52.591 25.9147 50.3666 27.2022 46.2438 27.2022Z" fill="#F9A51B"/>
<path d="M44.4302 0V1.81348H51.3087L34.0807 19.0415H15.0737L0.309021 31.9599L1.50443 33.3254L15.7555 20.855H34.8316L52.5909 3.09567V9.97414H54.4044V0H44.4302Z" fill="#F9A51B"/>
</svg>
