<svg width="57" height="57" viewBox="0 0 57 57" fill="none" xmlns="http://www.w3.org/2000/svg">
<path d="M52.6887 27.3326C48.9052 27.3326 45.3933 25.4412 43.2943 22.2715L42.5412 21.1345L41.7882 22.2715C39.6892 25.4412 36.1772 27.3326 32.3938 27.3326H28.9642V41.9428C28.9642 45.4742 30.5437 48.7933 33.1831 51.0209H14.4821V47.3765H26.2488V30.977H7.24106V38.2657H1.81027V1.82217H41.6361V18.2217H43.4464V0H0V39.5539L13.2023 52.8431H35.9654L42.5412 56.625L50.1896 52.2263C53.8463 50.1235 56.1182 46.1821 56.1182 41.9428V27.3326H52.6887ZM12.6719 49.7326L3.09012 40.0878H12.6719V49.7326ZM9.05133 38.2657V32.7991H24.4386V45.5544H14.4821V38.2657H9.05133ZM54.308 41.9428C54.308 45.5307 52.3855 48.8643 49.2917 50.6446L42.5412 54.5277L35.7908 50.6446C32.697 48.8643 30.7745 45.5307 30.7745 41.9428V29.1548H32.3938C36.3583 29.1548 40.0657 27.3645 42.5412 24.3096C45.0168 27.3645 48.7242 29.1548 52.6887 29.1548H54.308V41.9428Z" fill="#F9A51B"/>
<path d="M50.6874 36.4435V41.9428C50.6874 44.226 49.4637 46.3479 47.495 47.4804L48.3929 49.062C50.9245 47.6061 52.4977 44.8783 52.4977 41.9428V36.4435H50.6874Z" fill="#F9A51B"/>
<path d="M5.43079 3.64441V9.11093H38.0156V3.64441H5.43079ZM36.2053 7.28876H7.24105V5.46658H36.2053V7.28876Z" fill="#F9A51B"/>
<path d="M50.0475 31.2439L38.0156 43.355L35.035 40.3548L33.7551 41.643L38.0156 45.9315L51.3274 32.5322L50.0475 31.2439Z" fill="#F9A51B"/>
<path d="M22.6283 34.6213H10.8616V36.4435H22.6283V34.6213Z" fill="#F9A51B"/>
<path d="M22.6283 38.2656H16.2924V40.0878H22.6283V38.2656Z" fill="#F9A51B"/>
<path d="M22.6283 41.91H16.2924V43.7322H22.6283V41.91Z" fill="#F9A51B"/>
<path d="M34.395 12.7552H5.43079V14.5774H34.395V12.7552Z" fill="#F9A51B"/>
<path d="M34.395 16.3995H5.43079V18.2217H34.395V16.3995Z" fill="#F9A51B"/>
<path d="M34.395 20.0439H5.43079V21.8661H34.395V20.0439Z" fill="#F9A51B"/>
<path d="M22.6283 23.6882H5.43079V25.5104H22.6283V23.6882Z" fill="#F9A51B"/>
<path d="M22.6283 27.3326H5.43079V29.1548H22.6283V27.3326Z" fill="#F9A51B"/>
<path d="M38.0156 12.7552H36.2053V14.5774H38.0156V12.7552Z" fill="#F9A51B"/>
<path d="M38.0156 16.3995H36.2053V18.2217H38.0156V16.3995Z" fill="#F9A51B"/>
<path d="M38.0156 20.0439H36.2053V21.8661H38.0156V20.0439Z" fill="#F9A51B"/>
<path d="M26.2489 23.6882H24.4386V25.5104H26.2489V23.6882Z" fill="#F9A51B"/>
<path d="M26.2489 27.3326H24.4386V29.1548H26.2489V27.3326Z" fill="#F9A51B"/>
</svg>
