<svg width="52" height="60" viewBox="0 0 52 60" fill="none" xmlns="http://www.w3.org/2000/svg">
<path d="M26.6852 32.3535C26.576 32.3299 26.4639 32.3256 26.3533 32.3422C25.2448 32.2131 24.4085 31.2752 24.4067 30.1596C24.4067 29.625 23.9732 29.1915 23.4385 29.1915C22.9039 29.1915 22.4704 29.625 22.4704 30.1596C22.4732 32.0226 23.7193 33.6545 25.5157 34.1475V35.1156C25.5157 35.6503 25.9491 36.0838 26.4838 36.0838C27.0184 36.0838 27.4519 35.6503 27.4519 35.1156V34.2061C29.5253 33.7722 30.9345 31.8411 30.7166 29.7342C30.4982 27.6272 28.7231 26.0261 26.6048 26.0257C25.3909 26.0257 24.4067 25.0414 24.4067 23.8275C24.4067 22.6135 25.3909 21.6293 26.6048 21.6293C27.8188 21.6293 28.803 22.6135 28.803 23.8275C28.803 24.3621 29.2365 24.7956 29.7711 24.7956C30.3058 24.7956 30.7392 24.3621 30.7392 23.8275C30.7364 21.8714 29.366 20.1842 27.4519 19.7805V18.8994C27.4519 18.3647 27.0184 17.9312 26.4838 17.9312C25.9491 17.9312 25.5157 18.3647 25.5157 18.8994V19.8396C23.5179 20.3851 22.2321 22.3247 22.5072 24.3773C22.7824 26.4298 24.5338 27.9619 26.6048 27.9615C27.8027 27.9615 28.7798 28.9206 28.8016 30.118C28.8238 31.3154 27.8821 32.31 26.6852 32.3535Z" fill="#F9A51B"/>
<path d="M12.5659 27.068C12.5659 34.8216 18.8512 41.1069 26.6048 41.1069C34.3584 41.1069 40.6437 34.8216 40.6437 27.068C40.6437 19.3144 34.3584 13.0291 26.6048 13.0291C18.855 13.0376 12.5748 19.3182 12.5659 27.068ZM26.6048 14.9653C33.2891 14.9653 38.7074 20.3837 38.7074 27.068C38.7074 33.7523 33.2891 39.1706 26.6048 39.1706C19.9205 39.1706 14.5021 33.7523 14.5021 27.068C14.5097 20.387 19.9238 14.9729 26.6048 14.9653Z" fill="#F9A51B"/>
<path d="M45.4163 43.4937L37.8324 47.077C36.7853 45.1294 34.7767 43.8899 32.5663 43.8275L25.5652 43.6351C24.4567 43.6034 23.369 43.3226 22.3833 42.8135L21.6709 42.4443C18.0234 40.543 13.6758 40.5477 10.032 42.4566L10.0765 40.8427C10.0911 40.3081 9.66992 39.8627 9.13527 39.8481L1.45825 39.6368C0.9236 39.6221 0.478767 40.0433 0.464112 40.578L0.000371081 57.4249C-0.0142832 57.9595 0.406913 58.4048 0.941563 58.4195L8.61859 58.6308H8.64506C9.16978 58.6308 9.59902 58.2134 9.6132 57.6891L9.63541 56.8831L11.6298 55.8153C12.4127 55.3941 13.3279 55.2938 14.183 55.5359L26.0928 58.8785C26.1136 58.8847 26.1344 58.8894 26.1557 58.8941C27.0165 59.0742 27.8939 59.1645 28.7731 59.164C30.6357 59.165 32.4765 58.7636 34.1693 57.9865C34.2109 57.9676 34.2511 57.9454 34.2893 57.9203L51.5574 46.7508C51.9876 46.4724 52.1266 45.9075 51.8746 45.4612C50.5926 43.1865 47.7492 42.32 45.4163 43.4937ZM1.96264 56.5106L2.37297 41.5991L8.11419 41.7569L7.70387 56.669L1.96264 56.5106ZM33.2971 56.2573C31.194 57.2065 28.845 57.4684 26.5844 57.0065L14.7068 53.6724C13.3699 53.2947 11.939 53.4512 10.7161 54.1087L9.69687 54.6547L9.96963 44.7403C13.1993 42.5923 17.3413 42.3715 20.7808 44.1636L21.4932 44.5328C22.7384 45.1757 24.1116 45.5302 25.5123 45.5709L32.5138 45.7633C34.4803 45.82 36.1505 47.2202 36.5494 49.147L26.1207 48.8591C25.586 48.8445 25.1412 49.2662 25.1261 49.8003C25.1114 50.335 25.5331 50.7803 26.0673 50.7949L37.5762 51.1117H37.6031C38.1274 51.1112 38.5561 50.6938 38.5703 50.17C38.5821 49.7493 38.5509 49.3281 38.4767 48.914L46.2554 45.2386C46.2629 45.2352 46.2705 45.2315 46.2781 45.2277C47.3814 44.6694 48.7154 44.8561 49.6231 45.6962L33.2971 56.2573Z" fill="#F9A51B"/>
<path d="M27.5729 10.3072V1.10986C27.5729 0.575211 27.1394 0.141724 26.6048 0.141724C26.0701 0.141724 25.6367 0.575211 25.6367 1.10986V10.3072C25.6367 10.8418 26.0701 11.2753 26.6048 11.2753C27.1394 11.2753 27.5729 10.8418 27.5729 10.3072Z" fill="#F9A51B"/>
<path d="M34.8339 10.3072V5.95056C34.8339 5.41591 34.4004 4.98242 33.8658 4.98242C33.3311 4.98242 32.8976 5.41591 32.8976 5.95056V10.3072C32.8976 10.8418 33.3311 11.2753 33.8658 11.2753C34.4004 11.2753 34.8339 10.8418 34.8339 10.3072Z" fill="#F9A51B"/>
<path d="M20.3119 10.3072V5.95056C20.3119 5.41591 19.8784 4.98242 19.3437 4.98242C18.8091 4.98242 18.3756 5.41591 18.3756 5.95056V10.3072C18.3756 10.8418 18.8091 11.2753 19.3437 11.2753C19.8784 11.2753 20.3119 10.8418 20.3119 10.3072Z" fill="#F9A51B"/>
</svg>
