<svg width="54" height="55" viewBox="0 0 54 55" fill="none" xmlns="http://www.w3.org/2000/svg">
<path d="M47.2126 47.0731H44.9224C44.8071 47.073 44.6938 47.1033 44.594 47.1609C44.4941 47.2185 44.4112 47.3014 44.3536 47.4012L43.2088 49.3846C43.1512 49.4844 43.1208 49.5975 43.1208 49.7127C43.1208 49.8279 43.1512 49.9411 43.2088 50.0409L44.3538 52.0242C44.4115 52.124 44.4944 52.2069 44.5942 52.2645C44.6941 52.3221 44.8073 52.3524 44.9226 52.3523H47.2128C47.3281 52.3524 47.4413 52.3221 47.5412 52.2645C47.641 52.2069 47.7239 52.124 47.7815 52.0242L48.9267 50.0409C48.9843 49.9411 49.0146 49.8279 49.0146 49.7127C49.0146 49.5975 48.9843 49.4844 48.9267 49.3846L47.7807 47.4012C47.7231 47.3015 47.6403 47.2186 47.5406 47.161C47.4409 47.1034 47.3277 47.0731 47.2126 47.0731ZM46.8337 51.0398H45.3012L44.5356 49.7127L45.3012 48.3856H46.8337L47.5993 49.7127L46.8337 51.0398Z" fill="#F9A51B"/>
<path d="M30.8748 31.9171C28.9662 31.4415 27.1295 30.7134 25.4134 29.7521L24.0493 29.0026V28.3855C25.3293 27.2427 26.1757 25.6933 26.4458 23.9989L26.9321 20.8969C27.3368 20.857 27.72 20.6953 28.0311 20.4333C28.3422 20.1713 28.5666 19.8211 28.6747 19.429C28.7828 19.0369 28.7696 18.6212 28.6368 18.2367C28.5039 17.8523 28.2577 17.5171 27.9305 17.2754C28.1615 16.5984 28.3371 15.9037 28.4555 15.1982H28.6799C29.1388 15.1988 29.5828 15.0354 29.932 14.7375C30.2811 14.4397 30.5123 14.0269 30.5839 13.5736C30.6555 13.1203 30.5628 12.6563 30.3225 12.2653C30.0823 11.8743 29.7102 11.582 29.2735 11.4411C29.185 9.16992 28.4197 6.97701 27.0759 5.14392C25.8153 3.42401 24.0552 2.13451 22.0353 1.45107L22.1069 0.76003C22.1164 0.66861 22.1066 0.576219 22.0781 0.488839C22.0496 0.401459 22.0031 0.32104 21.9415 0.252791C21.88 0.184541 21.8047 0.129983 21.7208 0.0926494C21.6368 0.0553163 21.5459 0.0360409 21.454 0.0360718H16.4687C16.3768 0.0360716 16.286 0.0553695 16.202 0.0927161C16.1181 0.130063 16.0429 0.184626 15.9813 0.252872C15.9198 0.321118 15.8733 0.401527 15.8448 0.488891C15.8163 0.576256 15.8065 0.668629 15.816 0.76003L15.8876 1.45117C13.8662 2.13663 12.1057 3.42949 10.8466 5.1531C9.50706 6.9847 8.7428 9.17346 8.65111 11.4408C8.21419 11.5815 7.84192 11.8736 7.60144 12.2646C7.36095 12.6556 7.26808 13.1196 7.33958 13.573C7.41107 14.0264 7.64223 14.4393 7.99135 14.7373C8.34048 15.0353 8.78459 15.1988 9.2436 15.1982H9.41269C9.53142 15.74 9.69405 16.2714 9.89898 16.7868L10.1477 17.4121C9.86168 17.675 9.65782 18.0149 9.56073 18.391C9.46363 18.7671 9.47745 19.1633 9.60051 19.5317C9.72357 19.9001 9.95061 20.225 10.2542 20.4673C10.5579 20.7095 10.9251 20.8587 11.3117 20.8969L11.798 23.9989C12.0451 25.5519 12.7776 26.9869 13.8904 28.0982V29.2303L12.525 29.916C12.4415 29.9388 12.3634 29.9781 12.2953 30.0314L12.1612 30.0986C10.533 30.9008 8.81701 31.5111 7.04788 31.9171C5.03646 32.3949 3.24562 33.5387 1.96619 35.1626C0.686761 36.7866 -0.00612852 38.7953 4.08442e-05 40.8627V54.2864C4.08442e-05 54.4605 0.0691817 54.6274 0.192253 54.7505C0.315325 54.8735 0.482246 54.9427 0.656295 54.9427H37.2663C37.4404 54.9427 37.6073 54.8735 37.7303 54.7505C37.8534 54.6274 37.9226 54.4605 37.9226 54.2864V40.8627C37.9287 38.7954 37.2359 36.7866 35.9564 35.1627C34.677 33.5387 32.8862 32.395 30.8748 31.9171ZM6.54443 53.6302H1.31255V40.8627C1.30775 39.2352 1.80856 37.6464 2.74578 36.3158C3.68301 34.9852 5.01036 33.9785 6.54443 33.4349V53.6302ZM15.4762 3.02028C15.8924 2.83131 16.3236 2.67689 16.7651 2.5586C16.9162 2.51843 17.048 2.42566 17.1367 2.297C17.2254 2.16833 17.2654 2.01221 17.2492 1.85674L17.1965 1.34858H20.7261L20.6734 1.85674C20.6572 2.01221 20.6972 2.16833 20.7859 2.297C20.8746 2.42566 21.0064 2.51843 21.1575 2.5586C21.599 2.6769 22.0301 2.83108 22.4464 3.01962V3.9165C22.4461 4.98562 22.1232 6.02976 21.5199 6.91242C20.9166 7.79507 20.0611 8.47516 19.0651 8.86378C18.0168 8.50662 17.1068 7.8299 16.4631 6.92877C15.8193 6.02763 15.4742 4.9474 15.4762 3.83994V3.02028ZM11.9022 5.93306C12.5276 5.08473 13.2922 4.34852 14.1636 3.75572V3.83994C14.1612 5.23878 14.6028 6.60231 15.4248 7.73417C16.2468 8.86602 17.4068 9.70778 18.7377 10.1382L18.8737 10.182C19.0092 10.2262 19.1554 10.2249 19.2902 10.1785C20.5943 9.72962 21.7258 8.88492 22.5269 7.7622C23.328 6.63948 23.7587 5.29473 23.759 3.91552V3.75331C24.6302 4.34424 25.395 5.0786 26.0208 5.92519C27.1783 7.50595 27.8495 9.38999 27.9523 11.3465H9.97095C10.0772 9.39314 10.7481 7.5126 11.9022 5.93306ZM9.2436 13.8857C9.16237 13.8867 9.08173 13.8717 9.00637 13.8413C8.931 13.811 8.86242 13.766 8.80459 13.7089C8.74676 13.6519 8.70085 13.5839 8.66951 13.509C8.63817 13.434 8.62203 13.3536 8.62203 13.2723C8.62203 13.1911 8.63817 13.1107 8.66951 13.0357C8.70085 12.9608 8.74676 12.8928 8.80459 12.8357C8.86242 12.7787 8.931 12.7337 9.00637 12.7033C9.08173 12.673 9.16237 12.6579 9.2436 12.659H28.679C28.7602 12.6579 28.8409 12.673 28.9162 12.7033C28.9916 12.7337 29.0602 12.7787 29.118 12.8357C29.1758 12.8928 29.2218 12.9608 29.2531 13.0357C29.2844 13.1107 29.3006 13.1911 29.3006 13.2723C29.3006 13.3536 29.2844 13.434 29.2531 13.509C29.2218 13.5839 29.1758 13.6519 29.118 13.7089C29.0602 13.766 28.9916 13.811 28.9162 13.8413C28.8409 13.8717 28.7602 13.8867 28.679 13.8857H26.347C26.3461 13.8856 26.3453 13.8856 26.3444 13.8857H9.2436ZM27.1231 15.1982C27.0937 15.3551 27.0606 15.5114 27.0247 15.6671V15.1982H27.1231ZM11.2184 15.1982V16.5526L11.1185 16.3017C10.9757 15.942 10.8565 15.5734 10.7616 15.1982H11.2184ZM13.0947 23.7956L12.523 20.1488C12.4988 19.9943 12.4201 19.8535 12.3013 19.7518C12.1824 19.6501 12.0311 19.5942 11.8746 19.5942H11.5123C11.4193 19.5954 11.327 19.578 11.2407 19.5433C11.1544 19.5085 11.076 19.4569 11.0098 19.3915C10.9436 19.3262 10.8911 19.2483 10.8552 19.1625C10.8193 19.0767 10.8009 18.9846 10.8009 18.8916C10.8009 18.7986 10.8193 18.7065 10.8552 18.6207C10.8911 18.5349 10.9436 18.4571 11.0098 18.3917C11.076 18.3263 11.1544 18.2748 11.2407 18.24C11.327 18.2052 11.4193 18.1879 11.5123 18.189H11.8746C12.0487 18.189 12.2156 18.1199 12.3387 17.9968C12.4617 17.8738 12.5309 17.7068 12.5309 17.5328V15.1982H25.7124V17.5328C25.7124 17.7068 25.7815 17.8738 25.9046 17.9968C26.0277 18.1199 26.1946 18.189 26.3687 18.189H26.7132C26.8238 18.2684 26.9564 18.311 27.0925 18.3109C27.1026 18.3109 27.1125 18.309 27.1226 18.3086C27.2477 18.3925 27.3425 18.5143 27.393 18.6562C27.4436 18.7981 27.4472 18.9524 27.4033 19.0965C27.3594 19.2406 27.2704 19.3667 27.1493 19.4563C27.0283 19.546 26.8816 19.5943 26.731 19.5942H26.3687C26.2122 19.5942 26.061 19.6501 25.9421 19.7518C25.8232 19.8535 25.7446 19.9943 25.7204 20.1488L25.1487 23.7956C24.9234 25.2323 24.1923 26.5412 23.0873 27.4864C21.9822 28.4317 20.5759 28.9511 19.1217 28.9511C17.6675 28.9511 16.2612 28.4317 15.1561 27.4864C14.0511 26.5412 13.32 25.2323 13.0947 23.7956ZM15.2029 29.4454V29.1423C15.3434 29.2298 15.4867 29.3136 15.6335 29.392C16.7068 29.9654 17.9048 30.2654 19.1216 30.2654C20.3385 30.2654 21.5365 29.9654 22.6097 29.392C22.6524 29.3692 22.6943 29.3455 22.7364 29.322V31.9571C22.2552 32.4751 21.6723 32.8882 21.0242 33.1707C20.3761 33.4532 19.6767 33.599 18.9697 33.599C18.2627 33.599 17.5633 33.4532 16.9152 33.1707C16.2671 32.8882 15.6842 32.4751 15.2029 31.9571V29.7982C15.2354 29.6828 15.2354 29.5608 15.2029 29.4454ZM13.3545 30.9681L13.8904 30.699V32.206C13.8905 32.3613 13.9456 32.5115 14.0461 32.63C14.6519 33.3449 15.4062 33.9193 16.2565 34.3132C17.1067 34.7072 18.0326 34.9113 18.9697 34.9113C19.9068 34.9113 20.8326 34.7072 21.6829 34.3132C22.5331 33.9193 23.2874 33.3449 23.8933 32.63C23.9937 32.5115 24.0489 32.3611 24.0489 32.2058V30.4995L24.5679 30.7846V35.7667C24.5679 37.2537 23.9772 38.6797 22.9258 39.7312C21.8743 40.7826 20.4483 41.3733 18.9613 41.3733C17.4743 41.3733 16.0483 40.7826 14.9968 39.7312C13.9454 38.6797 13.3547 37.2537 13.3547 35.7667L13.3545 30.9681ZM24.7954 53.6302H14.2181V47.8817C15.8884 48.5995 17.6869 48.9712 19.5049 48.9743C21.3229 48.9774 23.1227 48.6118 24.7954 47.8996V53.6302ZM30.0657 53.6302H26.1079V46.8635C26.1079 46.7507 26.0788 46.6397 26.0234 46.5414C25.968 46.443 25.8882 46.3607 25.7917 46.3022C25.6951 46.2437 25.5852 46.2111 25.4723 46.2076C25.3595 46.204 25.2477 46.2296 25.1477 46.2819C23.4063 47.1918 21.47 47.6653 19.5052 47.6617C17.5404 47.6581 15.6059 47.1774 13.8679 46.261C13.7679 46.2082 13.6559 46.1822 13.5429 46.1854C13.4298 46.1886 13.3195 46.221 13.2227 46.2794C13.1258 46.3379 13.0457 46.4203 12.9902 46.5188C12.9346 46.6173 12.9054 46.7284 12.9054 46.8415V53.6302H7.85693V33.0663C9.29247 32.7057 10.6931 32.2182 12.0422 31.6093V35.7674C12.0422 37.6024 12.7712 39.3623 14.0688 40.6599C15.3663 41.9575 17.1262 42.6865 18.9613 42.6865C20.7964 42.6865 22.5563 41.9575 23.8538 40.6599C25.1514 39.3623 25.8804 37.6024 25.8804 35.7674V31.4745C27.2205 32.1395 28.6222 32.6722 30.0657 33.065V53.6302ZM36.6101 53.6302H31.3782V33.435C32.9122 33.9786 34.2396 34.9852 35.1768 36.3158C36.114 37.6464 36.6149 39.2352 36.6101 40.8627V53.6302Z" fill="#F9A51B"/>
<path d="M18.9613 37.6761C19.1324 37.6761 19.2996 37.6254 19.4419 37.5303C19.5842 37.4353 19.6951 37.3002 19.7605 37.1421C19.826 36.9841 19.8432 36.8101 19.8098 36.6423C19.7764 36.4745 19.694 36.3203 19.5731 36.1994C19.4521 36.0784 19.2979 35.996 19.1301 35.9626C18.9623 35.9292 18.7883 35.9464 18.6303 36.0119C18.4722 36.0773 18.3371 36.1882 18.2421 36.3305C18.147 36.4728 18.0963 36.64 18.0963 36.8111C18.0966 37.0405 18.1878 37.2603 18.3499 37.4225C18.5121 37.5846 18.7319 37.6758 18.9613 37.6761Z" fill="#F9A51B"/>
<path d="M18.9613 40.39C19.1324 40.39 19.2996 40.3393 19.4419 40.2443C19.5842 40.1492 19.695 40.0142 19.7605 39.8561C19.826 39.698 19.8432 39.5241 19.8098 39.3563C19.7764 39.1885 19.6941 39.0343 19.5731 38.9133C19.4521 38.7923 19.298 38.7099 19.1302 38.6765C18.9624 38.6432 18.7884 38.6603 18.6303 38.7257C18.4723 38.7912 18.3372 38.9021 18.2421 39.0444C18.1471 39.1866 18.0963 39.3539 18.0963 39.525C18.0965 39.7543 18.1877 39.9742 18.3499 40.1364C18.5121 40.2985 18.7319 40.3898 18.9613 40.39Z" fill="#F9A51B"/>
<path d="M53.809 21.0937L53.7823 21.0652C53.7091 20.9869 53.6177 20.9278 53.5163 20.893C53.4149 20.8582 53.3066 20.8487 53.2007 20.8655C53.0948 20.8823 52.9946 20.9247 52.909 20.9891C52.8233 21.0535 52.7547 21.138 52.7091 21.235L49.476 24.4682L45.2893 23.6906L44.5118 19.5038L47.8572 16.1588C47.9182 16.0978 47.9666 16.0255 47.9996 15.9458C48.0327 15.8661 48.0496 15.7808 48.0496 15.6945C48.0496 15.6083 48.0327 15.5229 47.9996 15.4433C47.9666 15.3636 47.9182 15.2912 47.8572 15.2303L47.8288 15.2019C47.7207 15.0939 47.5782 15.027 47.4261 15.0129C45.8098 14.8608 44.1892 15.2555 42.824 16.1339C41.4587 17.0122 40.4277 18.3233 39.8961 19.8573C39.3645 21.3912 39.3631 23.0591 39.892 24.5939C40.421 26.1287 41.4497 27.4416 42.8135 28.3223V45.6238C41.9641 46.2991 41.3458 47.2219 41.0443 48.2642C40.7427 49.3066 40.7729 50.4169 41.1305 51.4413C41.4881 52.4658 42.1555 53.3537 43.0402 53.9819C43.925 54.6102 44.9832 54.9477 46.0683 54.9477C47.1534 54.9477 48.2116 54.6102 49.0963 53.9819C49.981 53.3537 50.6485 52.4658 51.0061 51.4413C51.3637 50.4169 51.3938 49.3066 51.0923 48.2642C50.7907 47.2219 50.1724 46.2991 49.3231 45.6238V29.0082C50.7902 28.4525 52.0372 27.4353 52.8765 26.1098C53.7158 24.7843 54.102 23.2221 53.9769 21.6582C53.9948 21.5575 53.989 21.4541 53.9598 21.3561C53.9307 21.258 53.879 21.1682 53.809 21.0937ZM49.9849 49.7127C49.9849 50.4875 49.7552 51.245 49.3247 51.8892C48.8943 52.5335 48.2825 53.0356 47.5667 53.3321C46.8508 53.6286 46.0631 53.7062 45.3032 53.5551C44.5433 53.4039 43.8452 53.0308 43.2974 52.483C42.7495 51.9351 42.3763 51.2371 42.2252 50.4771C42.074 49.7172 42.1516 48.9295 42.4481 48.2137C42.7446 47.4979 43.2467 46.886 43.8909 46.4556C44.5352 46.0251 45.2926 45.7953 46.0674 45.7953C47.106 45.7965 48.1018 46.2096 48.8362 46.944C49.5706 47.6784 49.9837 48.6741 49.9849 49.7127ZM44.1251 44.8582V28.9905C45.361 29.4696 46.7047 29.6002 48.0097 29.3682V44.8582C46.7632 44.3575 45.3716 44.3575 44.1251 44.8582ZM50.9467 26.4315C50.2848 27.093 49.476 27.5887 48.5861 27.8782C47.6963 28.1678 46.7506 28.2429 45.8262 28.0975C44.9018 27.9522 44.0248 27.5904 43.2668 27.0418C42.5087 26.4931 41.8911 25.7731 41.4641 24.9404C41.0372 24.1077 40.8131 23.1859 40.8101 22.2501C40.8071 21.3143 41.0253 20.3911 41.4469 19.5557C41.8685 18.7203 42.4815 17.9963 43.236 17.4428C43.9905 16.8893 44.8652 16.5219 45.7886 16.3706L43.3394 18.8199C43.264 18.8952 43.2082 18.9877 43.1766 19.0895C43.1451 19.1912 43.1388 19.2991 43.1582 19.4038L44.0813 24.3732C44.1055 24.5035 44.1687 24.6234 44.2624 24.7171C44.3561 24.8108 44.476 24.874 44.6063 24.8982L49.5756 25.8212C49.6803 25.8407 49.7882 25.8344 49.8899 25.8028C49.9917 25.7713 50.0842 25.7154 50.1595 25.6401L52.6095 23.1901C52.4103 24.4187 51.8283 25.5531 50.9467 26.4316V26.4315Z" fill="#F9A51B"/>
<path d="M17.8993 6.59278H20.2537C20.4278 6.59278 20.5947 6.52364 20.7178 6.40057C20.8408 6.2775 20.91 6.11058 20.91 5.93653C20.91 5.76248 20.8408 5.59556 20.7178 5.47249C20.5947 5.34941 20.4278 5.28027 20.2537 5.28027H17.8993C17.7252 5.28027 17.5583 5.34941 17.4353 5.47249C17.3122 5.59556 17.243 5.76248 17.243 5.93653C17.243 6.11058 17.3122 6.2775 17.4353 6.40057C17.5583 6.52364 17.7252 6.59278 17.8993 6.59278Z" fill="#F9A51B"/>
<path d="M17.8993 4.42207H20.2537C20.4278 4.42207 20.5947 4.35293 20.7178 4.22985C20.8408 4.10678 20.91 3.93986 20.91 3.76581C20.91 3.59176 20.8408 3.42484 20.7178 3.30177C20.5947 3.1787 20.4278 3.10956 20.2537 3.10956H17.8993C17.7252 3.10956 17.5583 3.1787 17.4353 3.30177C17.3122 3.42484 17.243 3.59176 17.243 3.76581C17.243 3.93986 17.3122 4.10678 17.4353 4.22985C17.5583 4.35293 17.7252 4.42207 17.8993 4.42207Z" fill="#F9A51B"/>
</svg>
