<svg width="59" height="59" viewBox="0 0 59 59" fill="none" xmlns="http://www.w3.org/2000/svg">
<path d="M20.7769 46.8076L22.3285 45.7266L23.4166 47.2884L21.865 48.3694L20.7769 46.8076Z" fill="#F9A51B"/>
<path d="M24.2296 44.4014L37.1855 35.3749L38.2736 36.9366L25.3177 45.9631L24.2296 44.4014Z" fill="#F9A51B"/>
<path d="M56.4925 12.9305C56.1766 11.8276 55.736 10.7656 55.1783 9.75974L56.5353 7.56818L51.4318 2.46468L49.2403 3.82168C48.2344 3.26403 47.1724 2.82344 46.0695 2.5075L45.4795 0H38.2625L37.6725 2.5075C36.5695 2.82344 35.5075 3.26403 34.5017 3.82168L32.3101 2.46468L27.2066 7.56818L28.5636 9.75974C28.006 10.7656 27.5654 11.8276 27.2494 12.9305L24.7419 13.5205V15.3438C24.2918 15.457 23.8617 15.6483 23.4896 15.9281L17.0653 20.7452C16.9016 20.8679 16.6989 20.9355 16.4943 20.9355H14.1686C15.4066 19.725 16.1774 18.0407 16.1774 16.1774C16.1774 12.5051 13.1884 9.51613 9.51613 9.51613C5.84385 9.51613 2.85484 12.5051 2.85484 16.1774C2.85484 18.3547 3.90923 20.2846 5.52982 21.5007C2.3029 22.7293 0 25.8468 0 29.5V37.1129V55.1935C0 57.2928 1.70719 59 3.80645 59H59V20.7375V19.0323V13.5205L56.4925 12.9305ZM4.75806 16.1774C4.75806 13.5538 6.89253 11.4194 9.51613 11.4194C12.1397 11.4194 14.2742 13.5538 14.2742 16.1774C14.2742 18.801 12.1397 20.9355 9.51613 20.9355C6.89253 20.9355 4.75806 18.801 4.75806 16.1774ZM1.90323 29.5C1.90323 25.8277 4.89224 22.8387 8.56452 22.8387H16.4943C17.109 22.8387 17.7171 22.6351 18.2072 22.2668L24.6306 17.4497C24.9075 17.2432 25.2491 17.129 25.5946 17.129H25.9924C26.8764 17.129 27.5968 17.8494 27.5968 18.7344C27.5968 19.233 27.3712 19.6946 26.9773 20.001L20.946 24.6925C20.1161 25.3376 19.0789 25.6935 18.0245 25.6935H10.4677V36.1613H14.2742C15.8482 36.1613 17.129 37.4422 17.129 39.0161V47.5797C17.129 48.6303 16.2754 49.4839 15.2249 49.4839C14.7167 49.4839 14.238 49.2859 13.8783 48.9262C13.5196 48.5665 13.3216 48.0888 13.3216 47.5806L13.3226 41.871C13.3226 40.8213 12.469 39.9677 11.4194 39.9677H4.75806C3.1841 39.9677 1.90323 38.6869 1.90323 37.1129V29.5ZM14.2742 34.2581H12.371V27.5968H18.0245C19.4995 27.5968 20.9517 27.0991 22.1145 26.1931L27.475 22.0241C27.7652 22.8787 28.124 23.7075 28.5636 24.4983L27.2066 26.6899L32.3101 31.7934L34.5017 30.4364C35.1002 30.7685 35.7245 31.0445 36.3602 31.2919L19.0323 43.3536V39.0161C19.0323 36.3925 16.8978 34.2581 14.2742 34.2581ZM7.6129 41.871H11.4194L11.4184 47.5787V47.5797C11.4184 47.9109 11.4745 48.2296 11.5554 48.5418L7.6129 51.2967V41.871ZM1.90323 55.1935V40.8946C2.70068 41.4989 3.68274 41.871 4.75806 41.871H5.70968V55.1935C5.70968 56.2432 4.85608 57.0968 3.80645 57.0968C2.75682 57.0968 1.90323 56.2432 1.90323 55.1935ZM57.0968 57.0968H7.08381C7.41116 56.5344 7.6129 55.8901 7.6129 55.1935V53.6186L12.4852 50.2138C12.5023 50.2318 12.5147 50.2537 12.5327 50.2718C13.2522 50.9912 14.2085 51.3871 15.2249 51.3871C17.3241 51.3871 19.0323 49.679 19.0323 47.5797V45.6717L37.8637 32.5642L38.2625 34.2581H45.4795L46.0695 31.7506C47.1724 31.4346 48.2344 30.994 49.2403 30.4364L51.4318 31.7934L56.5353 26.6899L55.1783 24.4983C55.736 23.4925 56.1766 22.4305 56.4925 21.3275L57.0968 21.1858V57.0968ZM57.0968 19.2302L54.9338 19.7393L54.7948 20.3065C54.4751 21.6159 53.9565 22.8644 53.2561 24.0206L52.9534 24.5183L54.123 26.4082L51.1511 29.3801L49.2612 28.2106L48.7635 28.5132C47.6073 29.2136 46.3588 29.7322 45.0494 30.0519L44.4822 30.1909L43.9721 32.3548H39.7698L39.2607 30.1918L38.6935 30.0529C37.3841 29.7331 36.1356 29.2145 34.9794 28.5141L34.4817 28.2115L32.5918 29.381L29.6199 26.4092L30.7894 24.5193L30.4868 24.0216C29.8207 22.9234 29.3259 21.7396 29.0033 20.5006C29.3144 19.9705 29.5 19.371 29.5 18.7344C29.5 17.0234 28.2677 15.5998 26.6452 15.2924V15.0288L28.8082 14.5197L28.9471 13.9525C29.2669 12.6431 29.7855 11.3946 30.4859 10.2384L30.7885 9.74071L29.619 7.85081L32.5908 4.87892L34.4807 6.04845L34.9784 5.74584C36.1346 5.04545 37.3832 4.52682 38.6926 4.20708L39.2597 4.06815L39.7698 1.90323H43.9721L44.4812 4.06624L45.0484 4.20518C46.3578 4.52492 47.6063 5.04355 48.7625 5.74394L49.2602 6.04655L51.1501 4.87702L54.122 7.8489L52.9525 9.73881L53.2551 10.2365C53.9555 11.3927 54.4741 12.6412 54.7939 13.9506L54.9328 14.5178L57.0968 15.0279V19.0323V19.2302Z" fill="#F9A51B"/>
<path d="M41.871 5.70966C35.5742 5.70966 30.4516 10.8322 30.4516 17.129C30.4516 23.4258 35.5742 28.5484 41.871 28.5484C48.1678 28.5484 53.2903 23.4258 53.2903 17.129C53.2903 10.8322 48.1678 5.70966 41.871 5.70966ZM41.871 26.6451C36.6238 26.6451 32.3549 22.3762 32.3549 17.129C32.3549 11.8818 36.6238 7.61288 41.871 7.61288C47.1182 7.61288 51.3871 11.8818 51.3871 17.129C51.3871 22.3762 47.1182 26.6451 41.871 26.6451Z" fill="#F9A51B"/>
<path d="M41.871 11.4194C38.7221 11.4194 36.1613 13.9802 36.1613 17.129C36.1613 20.2779 38.7221 22.8387 41.871 22.8387C45.0198 22.8387 47.5806 20.2779 47.5806 17.129C47.5806 13.9802 45.0198 11.4194 41.871 11.4194ZM41.871 20.9355C39.7717 20.9355 38.0645 19.2283 38.0645 17.129C38.0645 15.0298 39.7717 13.3226 41.871 13.3226C43.9702 13.3226 45.6774 15.0298 45.6774 17.129C45.6774 19.2283 43.9702 20.9355 41.871 20.9355Z" fill="#F9A51B"/>
<path d="M53.2903 53.2903H55.1935V55.1936H53.2903V53.2903Z" fill="#F9A51B"/>
<path d="M53.2903 49.4839H55.1935V51.3871H53.2903V49.4839Z" fill="#F9A51B"/>
<path d="M53.2903 45.6774H55.1935V47.5807H53.2903V45.6774Z" fill="#F9A51B"/>
<path d="M9.51614 53.2903H11.4194V55.1936H9.51614V53.2903Z" fill="#F9A51B"/>
<path d="M13.3226 53.2903H15.2258V55.1936H13.3226V53.2903Z" fill="#F9A51B"/>
<path d="M17.129 53.2903H19.0323V55.1936H17.129V53.2903Z" fill="#F9A51B"/>
</svg>
