<svg width="257" height="32" viewBox="0 0 257 32" fill="none" xmlns="http://www.w3.org/2000/svg">
<path fill-rule="evenodd" clip-rule="evenodd" d="M42.2265 0.825832H33.2051V31.3357H42.2265V22.5022L46.8625 17.6783L54.0044 31.3983L63.3391 31.3357L52.8141 11.2255L62.2114 0.825832L53.7538 0.763184L42.0385 13.7941L42.2265 0.825832Z" fill="#F9A51B"/>
<path fill-rule="evenodd" clip-rule="evenodd" d="M82.9481 0.825684H65.9077V31.3356H83.324C96.1043 31.3356 98.485 17.8035 86.7697 15.2975C97.1067 12.6663 94.4128 0.825684 82.9481 0.825684ZM81.1313 6.58936H74.9291V13.1675C76.9965 13.1675 79.0639 13.2301 81.1939 13.2301C85.9552 13.2301 86.3938 6.58936 81.1313 6.58936ZM74.9291 17.6782V25.196H82.1337C85.642 25.2586 86.895 17.6155 81.8204 17.6155L74.9291 17.6782Z" fill="#F9A51B"/>
<path fill-rule="evenodd" clip-rule="evenodd" d="M19.9862 12.4157L28.4438 11.9145C27.4414 5.96288 24.7475 2.20397 18.608 0.512451C11.4034 -1.42965 3.00844 2.26662 0.941032 9.59651C-1.87815 19.495 1.56752 30.4585 12.2178 31.8368C21.9283 33.0271 27.3788 27.5767 28.4438 19.7456L19.9236 19.307C19.1718 22.2515 18.7959 24.6322 14.9743 24.6948C8.27092 24.8201 9.02271 11.7266 11.654 8.65678C13.5961 6.21348 17.1044 6.33878 18.9838 8.84472C19.7356 9.78445 19.7983 11.1627 19.9862 12.4157Z" fill="#F9A51B"/>
<path d="M256.046 1.38965H96.8561V6.52683H256.046V1.38965Z" fill="#F9A51B"/>
<path d="M256.046 8.71948H167.524V13.8567H256.046V8.71948Z" fill="#F9A51B"/>
<path fill-rule="evenodd" clip-rule="evenodd" d="M99.9259 20.9985L99.9886 17.8035H112.268V20.9985H108.697V31.3356H103.56V20.9985H99.9259Z" fill="#F9A51B"/>
<path fill-rule="evenodd" clip-rule="evenodd" d="M113.834 17.8034L126.99 17.7407V20.9358H119.096V22.8779H125.424V25.8851H119.096V28.1404H126.99V31.3355H113.834V17.8034Z" fill="#F9A51B"/>
<path fill-rule="evenodd" clip-rule="evenodd" d="M133.756 17.7407L127.491 17.8034L132.816 24.2562L127.303 31.3355H132.19L135.385 27.0754L138.643 31.3355H144.908L139.019 24.0683L144.093 17.8034H139.269L136.45 21.437L133.756 17.7407Z" fill="#F9A51B"/>
<path fill-rule="evenodd" clip-rule="evenodd" d="M151.423 17.866L146.035 17.8034V31.3355H151.423V26.1357H155.558V31.2728H160.946V17.7407H155.433V22.7526H151.423V17.866Z" fill="#F9A51B"/>
<path fill-rule="evenodd" clip-rule="evenodd" d="M168.902 17.2395C170.343 19.6202 174.415 25.7597 174.227 28.0777C174.039 30.2704 172.786 31.2102 170.656 31.774C169.278 32.0873 166.521 31.8993 165.268 31.1475C163.514 30.0198 163.201 28.2657 163.89 26.3862C165.143 23.2538 167.148 20.184 168.902 17.2395ZM168.463 19.6828L168.338 28.1404C168.276 29.644 164.391 29.0175 165.832 25.2586C166.459 23.567 167.649 21.437 168.463 19.6828Z" fill="#F9A51B"/>
<path fill-rule="evenodd" clip-rule="evenodd" d="M180.492 17.8035L174.916 31.3356H179.176L182.81 21.7503L186.256 31.3982H191.644L186.13 17.8035H180.492Z" fill="#F9A51B"/>
<path fill-rule="evenodd" clip-rule="evenodd" d="M193.711 19.6202C196.843 16.9263 202.419 16.6757 205.739 19.119C209.185 21.625 209.624 26.7622 206.366 29.7067C202.67 32.9644 195.465 32.6511 192.646 28.3284C191.017 25.7598 191.393 21.6876 193.711 19.6202ZM201.918 21.625C202.92 22.7527 202.732 26.261 202.168 27.514C201.479 29.2055 199.099 29.0802 198.159 27.7019C197.407 26.5742 197.345 23.5671 197.971 22.3768C198.785 20.8105 200.728 20.3094 201.918 21.625Z" fill="#F9A51B"/>
<path fill-rule="evenodd" clip-rule="evenodd" d="M221.777 17.6782H210.563V31.2729H216.014V20.9359H221.777V17.6782Z" fill="#F9A51B"/>
<path fill-rule="evenodd" clip-rule="evenodd" d="M228.23 17.6782H223.156V31.2729H228.293V29.832L232.992 23.3792V31.2729H238.129V17.6782H232.929V19.0564L228.23 25.4466V17.6782Z" fill="#F9A51B"/>
<path fill-rule="evenodd" clip-rule="evenodd" d="M246.21 17.6782H241.073V31.2729H246.273V29.832L250.972 23.3792V31.2729H256.109V17.6782H250.846V19.0564L246.21 25.4466V17.6782Z" fill="#F9A51B"/>
</svg>
