<svg width="18" height="18" viewBox="0 0 18 18" fill="none" xmlns="http://www.w3.org/2000/svg">
<rect width="18" height="18" rx="2" fill="#F9A51B"/>
<path d="M14.7727 7.97188C14.8641 7.89922 15 7.96719 15 8.08203V12.875C15 13.4961 14.4961 14 13.875 14H4.125C3.50391 14 3 13.4961 3 12.875V8.08438C3 7.96719 3.13359 7.90156 3.22734 7.97422C3.75234 8.38203 4.44844 8.9 6.83906 10.6367C7.33359 10.9977 8.16797 11.757 9 11.7523C9.83672 11.7594 10.6875 10.9836 11.1633 10.6367C13.5539 8.9 14.2477 8.37969 14.7727 7.97188ZM9 11C9.54375 11.0094 10.3266 10.3156 10.7203 10.0297C13.8305 7.77266 14.0672 7.57578 14.7844 7.01328C14.9203 6.90781 15 6.74375 15 6.57031V6.125C15 5.50391 14.4961 5 13.875 5H4.125C3.50391 5 3 5.50391 3 6.125V6.57031C3 6.74375 3.07969 6.90547 3.21562 7.01328C3.93281 7.57344 4.16953 7.77266 7.27969 10.0297C7.67344 10.3156 8.45625 11.0094 9 11Z" fill="black"/>
</svg>
