<svg width="18" height="18" viewBox="0 0 18 18" fill="none" xmlns="http://www.w3.org/2000/svg">
<rect width="18" height="18" rx="2" fill="#F9A51B"/>
<path d="M13.6367 4.48067L11.6055 4.01193C11.3848 3.96115 11.1583 4.07638 11.0684 4.28341L10.1309 6.47086C10.0489 6.66226 10.1036 6.88687 10.2657 7.01773L11.4493 7.98646C10.7462 9.48447 9.51767 10.7305 7.9884 11.4473L7.01967 10.2638C6.88686 10.1016 6.66421 10.047 6.47281 10.129L4.28535 11.0665C4.07637 11.1583 3.96114 11.3848 4.01192 11.6055L4.48066 13.6367C4.52949 13.8477 4.71699 14 4.93768 14C9.93954 14 14 9.94735 14 4.93769C14 4.71895 13.8496 4.5295 13.6367 4.48067Z" fill="black"/>
</svg>
