<svg width="18" height="18" viewBox="0 0 18 18" fill="none" xmlns="http://www.w3.org/2000/svg">
<rect width="18" height="18" rx="2" fill="white"/>
<path d="M8.84375 4C6.16797 4 4 6.16797 4 8.84375C4 11.5195 6.16797 13.6875 8.84375 13.6875C11.5195 13.6875 13.6875 11.5195 13.6875 8.84375C13.6875 6.16797 11.5195 4 8.84375 4ZM10.6502 10.1133L10.2596 10.6016C10.2339 10.6336 10.2022 10.6603 10.1663 10.6801C10.1303 10.6999 10.0908 10.7124 10.0501 10.717C10.0093 10.7215 9.96798 10.7179 9.92856 10.7065C9.88914 10.6951 9.85236 10.676 9.82031 10.6504L8.51172 9.6793C8.42028 9.60609 8.34648 9.51326 8.29577 9.40768C8.24506 9.3021 8.21874 9.18646 8.21875 9.06934V6.03125C8.21875 5.94837 8.25167 5.86888 8.31028 5.81028C8.36888 5.75167 8.44837 5.71875 8.53125 5.71875H9.15625C9.23913 5.71875 9.31862 5.75167 9.37722 5.81028C9.43583 5.86888 9.46875 5.94837 9.46875 6.03125V8.84375L10.6016 9.67383C10.6336 9.69948 10.6603 9.7312 10.6801 9.76717C10.6999 9.80314 10.7124 9.84266 10.7169 9.88348C10.7215 9.92429 10.7179 9.96559 10.7064 10.005C10.695 10.0445 10.6759 10.0812 10.6502 10.1133Z" fill="black"/>
</svg>
